<svg height="512pt" viewBox="0 -4 512 512" width="512pt" xmlns="http://www.w3.org/2000/svg"><path d="m401.75 400.15625c15.019531 13.996094 30.71875 20.308594 44.203125 16.042969 30.460937-9.8125 38.398437-70.484375 17.578125-135.507813-16.726562-52.480468-47.105469-91.820312-74.242188-100.011718l-266.238281.425781c-26.878906 8.875-56.492187 47.871093-73.046875 99.585937-20.820312 65.023438-12.882812 125.695313 17.582032 135.507813 13.140624 4.179687 28.414062-1.707031 43.089843-15.019531zm0 0" fill="#59474e"/><path d="m230.398438 501.105469c6.84375 1.273437 13.777343 1.984375 20.738281 2.132812 1.621093.085938 3.242187.171875 4.863281.171875s3.242188-.085937 4.863281-.171875c6.960938-.148437 13.894531-.859375 20.738281-2.132812l84.734376-46.933594c14.96875-15.71875 26.96875-34.019531 35.414062-54.015625 10.886719-25.335938 16.464844-52.636719 16.382812-80.214844.445313-44.949218-14.625-88.679687-42.667968-123.816406h-238.929688c-28.03125 35.144531-43.097656 78.867188-42.667968 123.816406-.082032 27.953125 5.644531 55.617188 16.808593 81.238282 8.421875 19.601562 20.269531 37.546874 34.988281 52.992187zm0 0" fill="#b19046"/><path d="m234.445312 501.105469c5.738282 1.269531 11.585938 1.984375 17.457032 2.132812 1.367187.085938 2.730468.171875 4.097656.171875s2.730469-.085937 4.097656-.171875c5.871094-.148437 11.71875-.863281 17.457032-2.132812l71.355468-46.933594c12.902344-16.210937 22.996094-34.46875 29.867188-54.015625 9.222656-25.730469 13.878906-52.878906 13.757812-80.214844.683594-43.9375-11.835937-87.070312-35.9375-123.816406h-201.195312c-24.089844 36.75-36.605469 79.878906-35.9375 123.816406-.109375 27.703125 4.683594 55.207032 14.160156 81.238282 6.839844 19.164062 16.796875 37.066406 29.464844 52.992187zm0 0" fill="#e4c05c"/><path d="m230.398438 501.105469c6.84375 1.273437 13.777343 1.984375 20.738281 2.132812h9.726562c6.960938-.148437 13.894531-.859375 20.738281-2.132812l51.199219-46.589844c11.351563-20.246094 17.234375-43.097656 17.066407-66.304687 0-63.660157-41.984376-115.199219-93.867188-115.199219s-93.867188 51.539062-93.867188 115.199219c-.167968 23.207031 5.714844 46.058593 17.066407 66.304687zm0 0" fill="#fdd7ad"/><path d="m172.714844 70.429688c-37.324219 5.4375-64.078125 38.824218-61.246094 76.4375 2.828125 37.613281 34.28125 66.621093 71.996094 66.410156 4.726562-.015625 9.441406-.472656 14.082031-1.367188 33.332031-4.804687 58.164063-33.222656 58.453125-66.898437" fill="#d1d4d1"/><path d="m238.933594 145.011719c0 28.273437-22.921875 51.199219-51.199219 51.199219s-51.199219-22.925782-51.199219-51.199219c0-28.277344 22.921875-51.203125 51.199219-51.203125s51.199219 22.925781 51.199219 51.203125zm0 0" fill="#fff"/><path d="m103.382812 8.476562 152.617188 136.535157 152.617188-136.535157s-50.875 30.523438-152.617188 30.523438-152.617188-30.523438-152.617188-30.523438zm0 0" fill="#7f6e5d"/><path d="m221.867188 145.011719c0 18.847656-15.28125 34.132812-34.132813 34.132812s-34.132813-15.285156-34.132813-34.132812c0-18.851563 15.28125-34.136719 34.132813-34.136719s34.132813 15.285156 34.132813 34.136719zm0 0" fill="#2c3e50"/><path d="m200.535156 145.011719c0 7.066406-5.734375 12.796875-12.800781 12.796875-7.070313 0-12.800781-5.730469-12.800781-12.796875 0-7.070313 5.730468-12.800781 12.800781-12.800781 7.066406 0 12.800781 5.730468 12.800781 12.800781zm0 0" fill="#fff"/><path d="m339.285156 70.429688c37.324219 5.4375 64.078125 38.824218 61.246094 76.4375-2.828125 37.613281-34.28125 66.621093-71.996094 66.410156-4.726562-.015625-9.441406-.472656-14.082031-1.367188-33.332031-4.804687-58.164063-33.222656-58.453125-66.898437" fill="#d1d4d1"/><path d="m375.464844 145.011719c0 28.273437-22.921875 51.199219-51.199219 51.199219s-51.199219-22.925782-51.199219-51.199219c0-28.277344 22.921875-51.203125 51.199219-51.203125s51.199219 22.925781 51.199219 51.203125zm0 0" fill="#fff"/><path d="m358.398438 145.011719c0 18.847656-15.28125 34.132812-34.132813 34.132812s-34.132813-15.285156-34.132813-34.132812c0-18.851563 15.28125-34.136719 34.132813-34.136719s34.132813 15.285156 34.132813 34.136719zm0 0" fill="#2c3e50"/><path d="m337.066406 145.011719c0 7.066406-5.730468 12.796875-12.800781 12.796875-7.066406 0-12.800781-5.730469-12.800781-12.796875 0-7.070313 5.734375-12.800781 12.800781-12.800781 7.070313 0 12.800781 5.730468 12.800781 12.800781zm0 0" fill="#fff"/><path d="m313.003906 211.570312c-9.765625 27.433594-30.378906 49.648438-57.003906 61.441407-26.625-11.792969-47.238281-34.007813-57.003906-61.441407l57.003906-75.09375zm0 0" fill="#f0c419"/><path d="m256 220.496094c-4.710938 0-8.535156-3.820313-8.535156-8.535156v-66.949219c0-4.714844 3.824218-8.535157 8.535156-8.535157s8.535156 3.820313 8.535156 8.535157v66.949219c0 4.714843-3.824218 8.535156-8.535156 8.535156zm0 0" fill="#e57e25"/><path d="m503.464844 494.875h-494.929688c-4.714844 0-8.535156-3.820312-8.535156-8.53125 0-4.714844 3.820312-8.535156 8.535156-8.535156h494.929688c4.714844 0 8.535156 3.820312 8.535156 8.535156 0 4.710938-3.820312 8.53125-8.535156 8.53125zm0 0" fill="#805333"/><path d="m281.601562 341.277344c-9.742187-.136719-18.996093-4.265625-25.601562-11.425782-6.605469 7.160157-15.859375 11.289063-25.601562 11.425782-4.710938 0-8.53125-3.820313-8.53125-8.535156 0-4.710938 3.820312-8.53125 8.53125-8.53125 7.6875-.882813 14.433593-5.53125 17.988281-12.398438 1.46875-2.855469 4.402343-4.65625 7.613281-4.667969h.058594c3.214844.007813 6.148437 1.824219 7.597656 4.691407 3.550781 6.851562 10.277344 11.488281 17.945312 12.375 4.710938 0 8.53125 3.820312 8.53125 8.53125 0 4.714843-3.820312 8.535156-8.53125 8.535156zm0 0" fill="#e4c05c"/><path d="m281.601562 426.609375c-9.742187-.132813-18.996093-4.265625-25.601562-11.425781-6.605469 7.160156-15.859375 11.292968-25.601562 11.425781-4.710938 0-8.53125-3.820313-8.53125-8.53125 0-4.714844 3.820312-8.535156 8.53125-8.535156 7.6875-.878907 14.433593-5.527344 17.988281-12.398438 1.46875-2.855469 4.402343-4.65625 7.613281-4.667969h.058594c3.214844.007813 6.148437 1.824219 7.597656 4.691407 3.550781 6.851562 10.277344 11.488281 17.945312 12.375 4.710938 0 8.53125 3.820312 8.53125 8.535156 0 4.710937-3.820312 8.53125-8.53125 8.53125zm0 0" fill="#e4c05c"/><path d="m238.933594 383.941406c-8.234375-.214844-15.984375-3.917968-21.332032-10.179687-5.347656 6.261719-13.101562 9.964843-21.335937 10.179687-4.710937 0-8.53125-3.820312-8.53125-8.53125 0-4.714844 3.820313-8.535156 8.53125-8.535156 8.160156 0 13.425781-11.730469 13.476563-11.859375 1.335937-3.15625 4.429687-5.207031 7.859374-5.207031 3.421876.011718 6.511719 2.066406 7.839844 5.222656 0 .085938 5.300782 11.820312 13.457032 11.820312 4.714843 0 8.535156 3.820313 8.535156 8.53125 0 4.714844-3.820313 8.535157-8.535156 8.535157zm0 0" fill="#e4c05c"/><path d="m315.734375 383.941406c-8.234375-.214844-15.988281-3.917968-21.335937-10.179687-5.347657 6.261719-13.097657 9.964843-21.332032 10.179687-4.710937 0-8.53125-3.820312-8.53125-8.53125 0-4.714844 3.820313-8.535156 8.53125-8.535156 8.15625 0 13.421875-11.730469 13.472656-11.859375 1.339844-3.15625 4.433594-5.207031 7.859376-5.207031 3.425781.011718 6.515624 2.066406 7.84375 5.222656 0 .085938 5.300781 11.820312 13.457031 11.820312 4.710937 0 8.535156 3.820313 8.535156 8.53125 0 4.714844-3.824219 8.535157-8.535156 8.535157zm0 0" fill="#e4c05c"/><path d="m256 153.542969c-2.101562 0-4.125-.773438-5.691406-2.175781l-152.617188-136.535157c-3.203125-2.949219-3.667968-7.835937-1.085937-11.335937 2.582031-3.5039065 7.390625-4.5 11.152343-2.316406.496094.265624 50.519532 29.289062 148.242188 29.289062s147.746094-29.023438 148.242188-29.3125c3.761718-2.1875 8.570312-1.1914062 11.152343 2.3125 2.582031 3.503906 2.117188 8.390625-1.085937 11.339844l-152.617188 136.53125c-1.5625 1.410156-3.585937 2.195312-5.691406 2.203125zm-111.949219-120.132813 111.949219 100.148438 111.949219-100.148438c-36.496094 9.800782-74.164063 14.550782-111.949219 14.125-37.785156.425782-75.453125-4.324218-111.949219-14.125zm0 0" fill="#59474e"/><path d="m256 78.058594c-4.710938 0-8.535156-3.820313-8.535156-8.535156v-30.523438c0-4.710938 3.824218-8.53125 8.535156-8.53125s8.535156 3.820312 8.535156 8.53125v30.523438c0 4.714843-3.824218 8.535156-8.535156 8.535156zm0 0" fill="#59474e"/><g fill="#f0c419"><path d="m221.867188 452.210938c9.425781 0 17.066406 7.640624 17.066406 17.066406v17.066406c0 9.425781-7.640625 17.066406-17.066406 17.066406-9.425782 0-17.066407-7.640625-17.066407-17.066406v-17.066406c0-9.425782 7.640625-17.066406 17.066407-17.066406zm0 0"/><path d="m187.734375 452.210938c9.425781 0 17.066406 7.640624 17.066406 17.066406v17.066406c0 9.425781-7.640625 17.066406-17.066406 17.066406s-17.066406-7.640625-17.066406-17.066406v-17.066406c0-9.425782 7.640625-17.066406 17.066406-17.066406zm0 0"/><path d="m153.601562 452.210938c9.425782 0 17.066407 7.640624 17.066407 17.066406v17.066406c0 9.425781-7.640625 17.066406-17.066407 17.066406-9.425781 0-17.066406-7.640625-17.066406-17.066406v-17.066406c0-9.425782 7.640625-17.066406 17.066406-17.066406zm0 0"/><path d="m358.398438 452.210938c9.425781 0 17.066406 7.640624 17.066406 17.066406v17.066406c0 9.425781-7.640625 17.066406-17.066406 17.066406-9.425782 0-17.066407-7.640625-17.066407-17.066406v-17.066406c0-9.425782 7.640625-17.066406 17.066407-17.066406zm0 0"/><path d="m324.265625 452.210938c9.425781 0 17.066406 7.640624 17.066406 17.066406v17.066406c0 9.425781-7.640625 17.066406-17.066406 17.066406s-17.066406-7.640625-17.066406-17.066406v-17.066406c0-9.425782 7.640625-17.066406 17.066406-17.066406zm0 0"/><path d="m290.132812 452.210938c9.425782 0 17.066407 7.640624 17.066407 17.066406v17.066406c0 9.425781-7.640625 17.066406-17.066407 17.066406-9.425781 0-17.066406-7.640625-17.066406-17.066406v-17.066406c0-9.425782 7.640625-17.066406 17.066406-17.066406zm0 0"/></g></svg>